HIERARCHY
ROOT joint_Root
{
	OFFSET 0.0 0.0 0.0
	CHANNELS 6 Xposition Yposition Zposition Zrotation Xrotation Yrotation 
	JOINT Hips
	{
		OFFSET 4.5925 91.4895 -427.239
		CHANNELS 6 Xposition Yposition Zposition Zrotation Xrotation Yrotation 
		JOINT Spine
		{
			OFFSET 15.7357 0.0 0.0
			CHANNELS 6 Xposition Yposition Zposition Zrotation Xrotation Yrotation 
			JOINT Chest
			{
				OFFSET 8.98455 -0.406207 0.0
				CHANNELS 6 Xposition Yposition Zposition Zrotation Xrotation Yrotation 
				JOINT Neck
				{
					OFFSET 16.3773 0.0 0.0
					CHANNELS 6 Xposition Yposition Zposition Zrotation Xrotation Yrotation 
					JOINT Head
					{
						OFFSET 6.45672 0.0 0.0
						CHANNELS 6 Xposition Yposition Zposition Zrotation Xrotation Yrotation 
						End Site
						{
							OFFSET 0.0 0.0 0.0
						}
					}
				}
				JOINT Shoulder_L
				{
					OFFSET 12.9942 -0.242716 4.98039
					CHANNELS 6 Xposition Yposition Zposition Zrotation Xrotation Yrotation 
					JOINT UpperArm_L
					{
						OFFSET 5.34809 0.0 0.0
						CHANNELS 6 Xposition Yposition Zposition Zrotation Xrotation Yrotation 
						JOINT LowerArm_L
						{
							OFFSET 24.3286 1.87007e-05 0.0
							CHANNELS 6 Xposition Yposition Zposition Zrotation Xrotation Yrotation 
							JOINT Hand_L
							{
								OFFSET 22.2916 0.0 0.0
								CHANNELS 6 Xposition Yposition Zposition Zrotation Xrotation Yrotation 
								End Site
								{
									OFFSET 0.0 0.0 0.0
								}
							}
						}
					}
				}
				JOINT Shoulder_R
				{
					OFFSET 12.9945 -0.242716 -4.98039
					CHANNELS 6 Xposition Yposition Zposition Zrotation Xrotation Yrotation 
					JOINT UpperArm_R
					{
						OFFSET -5.34813 0.0 0.0
						CHANNELS 6 Xposition Yposition Zposition Zrotation Xrotation Yrotation 
						JOINT LowerArm_R
						{
							OFFSET -24.3289 0.000322201 0.0
							CHANNELS 6 Xposition Yposition Zposition Zrotation Xrotation Yrotation 
							JOINT Hand_R
							{
								OFFSET -22.2915 -0.000108084 0.0
								CHANNELS 6 Xposition Yposition Zposition Zrotation Xrotation Yrotation 
								End Site
								{
									OFFSET 0.0 0.0 0.0
								}
							}
						}
					}
				}
			}
		}
		JOINT UpperLeg_L
		{
			OFFSET -2.19248 -6.46944 0.0
			CHANNELS 6 Xposition Yposition Zposition Zrotation Xrotation Yrotation 
			JOINT LowerLeg_L
			{
				OFFSET 39.0811 0.0 -1.23785e-05
				CHANNELS 6 Xposition Yposition Zposition Zrotation Xrotation Yrotation 
				JOINT Foot_L
				{
					OFFSET 40.9854 0.0 -1.26872e-05
					CHANNELS 6 Xposition Yposition Zposition Zrotation Xrotation Yrotation 
					JOINT Toes_L
					{
						OFFSET 11.7543 0.0 0.0
						CHANNELS 6 Xposition Yposition Zposition Zrotation Xrotation Yrotation 
						End Site
						{
							OFFSET 0.0 0.0 0.0
						}
					}
				}
			}
		}
		JOINT UpperLeg_R
		{
			OFFSET -2.19251 6.46944 0.0
			CHANNELS 6 Xposition Yposition Zposition Zrotation Xrotation Yrotation 
			JOINT LowerLeg_R
			{
				OFFSET -39.0811 -0.00228153 -0.0401928
				CHANNELS 6 Xposition Yposition Zposition Zrotation Xrotation Yrotation 
				JOINT Foot_R
				{
					OFFSET -40.9854 0.0 0.0
					CHANNELS 6 Xposition Yposition Zposition Zrotation Xrotation Yrotation 
					JOINT Toes_R
					{
						OFFSET -11.7543 0.0 0.0
						CHANNELS 6 Xposition Yposition Zposition Zrotation Xrotation Yrotation 
						End Site
						{
							OFFSET 0.0 0.0 0.0
						}
					}
				}
			}
		}
	}
}
MOTION
Frames:	5
Frame Time:	0.0333333
0.000000 0.000000 0.000000 0.000000 0.000000 -0.000000 -0.082936 90.711100 -5.700320 89.146400 -2.931640 8.781250 15.735700 0.000005 -0.000001 89.108400 76.603900 -89.868800 8.984550 -0.406207 -0.000000 19.020600 -0.482766 -1.443900 16.377300 -0.000001 -0.000001 11.437300 -3.755700 2.979450 6.456720 -0.000001 -0.000000 -9.268500 -3.440150 0.502339 12.994200 -0.242716 4.980390 -88.520100 -5.333410 -74.466800 5.348090 -0.000007 -0.000001 -77.209000 -19.153600 -81.161700 24.328600 0.000019 0.000005 44.825200 -8.965100 -98.910700 22.291600 -0.000001 0.000005 22.552200 4.977410 7.795970 12.994500 -0.242716 -4.980390 90.209900 -1.269810 -80.614100 -5.348130 -0.000001 -0.000004 -73.882300 -19.682700 -82.073400 -24.328900 0.000322 -0.000009 21.197800 -4.937230 -102.512000 -22.291500 -0.000108 -0.000004 25.664000 5.241030 1.668440 -2.192480 -6.469440 -0.000000 -175.544000 -11.648600 -6.504830 39.081100 -0.000007 -0.000012 -0.156391 0.240134 33.075200 40.985400 -0.000006 -0.000013 0.734458 4.991590 -67.751400 11.754300 -0.000000 0.000003 -0.000095 -0.000980 -16.615200 -2.192510 6.469440 -0.000001 176.415000 19.973800 174.494000 -39.081100 -0.002282 -0.040193 -0.042733 0.072200 32.518500 -40.985400 0.000008 0.000006 6.078710 11.584600 -68.778000 -11.754300 -0.000006 -0.000006 -0.002870 -0.039117 -18.163900
0.000000 0.000000 0.000000 0.000000 0.000000 -0.000000 -0.089294 90.716800 -5.697790 89.150200 -2.928180 8.780720 15.735700 0.000005 -0.000001 89.150200 76.597100 -89.908300 8.984550 -0.406207 -0.000000 19.034500 -0.463649 -1.442390 16.377300 -0.000001 -0.000001 11.463900 -3.773200 3.003770 6.456720 -0.000001 -0.000000 -9.345710 -3.429710 0.475566 12.994200 -0.242716 4.980390 -88.523800 -5.327230 -74.487600 5.348090 -0.000007 -0.000001 -77.166400 -19.132300 -81.178200 24.328600 0.000019 0.000005 44.806600 -8.958280 -98.909800 22.291600 -0.000001 0.000005 22.577800 4.975770 7.830470 12.994500 -0.242716 -4.980390 90.211000 -1.273070 -80.586900 -5.348130 -0.000001 -0.000004 -73.884300 -19.652800 -82.082600 -24.328900 0.000322 -0.000009 21.167100 -4.935110 -102.526000 -22.291500 -0.000108 -0.000004 25.768000 5.240140 1.691810 -2.192480 -6.469440 -0.000000 -175.540000 -11.666900 -6.482060 39.081100 -0.000007 -0.000012 -0.156735 0.240960 33.042700 40.985400 -0.000006 -0.000013 0.733118 5.005160 -67.740900 11.754300 -0.000000 0.000003 -0.000096 -0.000991 -16.615600 -2.192510 6.469440 -0.000001 176.418000 19.997000 174.504000 -39.081100 -0.002282 -0.040193 -0.038784 0.066058 32.498200 -40.985400 0.000008 0.000006 6.128350 11.587900 -68.779700 -11.754300 -0.000006 -0.000006 -0.002918 -0.039666 -18.186200
0.000000 0.000000 0.000000 0.000000 0.000000 -0.000000 -0.096226 90.720600 -5.696480 89.149900 -2.930210 8.730610 15.735700 0.000005 -0.000001 89.155200 76.601100 -89.908600 8.984550 -0.406207 -0.000000 19.026600 -0.460729 -1.433450 16.377300 -0.000001 -0.000001 11.398600 -3.767990 2.999120 6.456720 -0.000001 -0.000000 -9.318460 -3.408420 0.451174 12.994200 -0.242716 4.980390 -88.525600 -5.317220 -74.477800 5.348090 -0.000007 -0.000001 -77.155700 -19.100700 -81.185500 24.328600 0.000019 0.000005 44.785600 -8.951810 -98.909900 22.291600 -0.000001 0.000005 22.542400 4.978940 7.764020 12.994500 -0.242716 -4.980390 90.211000 -1.275530 -80.607300 -5.348130 -0.000001 -0.000004 -73.891200 -19.653000 -82.113400 -24.328900 0.000322 -0.000009 21.163200 -4.937970 -102.536000 -22.291500 -0.000108 -0.000004 25.787100 5.240590 1.680090 -2.192480 -6.469440 -0.000000 -175.549000 -11.657600 -6.535990 39.081100 -0.000007 -0.000012 -0.157112 0.241692 33.026200 40.985400 -0.000006 -0.000013 0.722612 4.986250 -67.720700 11.754300 -0.000000 0.000003 -0.000095 -0.000987 -16.615500 -2.192510 6.469440 -0.000001 176.437000 20.014100 174.463000 -39.081100 -0.002282 -0.040193 -0.041063 0.069688 32.478500 -40.985400 0.000008 0.000006 6.122140 11.598800 -68.771000 -11.754300 -0.000006 -0.000006 -0.002924 -0.039744 -18.189400
0.000000 0.000000 0.000000 0.000000 0.000000 -0.000000 -0.097091 90.727900 -5.689280 89.161700 -2.946290 8.721370 15.735700 0.000005 -0.000001 89.174300 76.591300 -89.921800 8.984550 -0.406207 -0.000000 19.046400 -0.451814 -1.423170 16.377300 -0.000001 -0.000001 11.373300 -3.758200 2.992840 6.456720 -0.000001 -0.000000 -9.388070 -3.386150 0.428231 12.994200 -0.242716 4.980390 -88.536100 -5.272690 -74.459000 5.348090 -0.000007 -0.000001 -77.126200 -19.030800 -81.188100 24.328600 0.000019 0.000005 44.841400 -8.942700 -98.884000 22.291600 -0.000001 0.000005 22.455900 4.978200 7.779570 12.994500 -0.242716 -4.980390 90.211000 -1.274030 -80.593900 -5.348130 -0.000001 -0.000004 -73.847200 -19.622000 -82.175800 -24.328900 0.000322 -0.000009 21.206500 -4.935120 -102.502000 -22.291500 -0.000108 -0.000004 25.825500 5.237290 1.766080 -2.192480 -6.469440 -0.000000 -175.559000 -11.661500 -6.502890 39.081100 -0.000007 -0.000012 -0.153622 0.236741 32.980000 40.985400 -0.000006 -0.000013 0.725207 5.013800 -67.717400 11.754300 -0.000000 0.000003 -0.000093 -0.000971 -16.614900 -2.192510 6.469440 -0.000001 176.434000 20.006600 174.469000 -39.081100 -0.002282 -0.040193 -0.039224 0.066869 32.451700 -40.985400 0.000008 0.000006 6.152830 11.610800 -68.769300 -11.754300 -0.000006 -0.000006 -0.002977 -0.040345 -18.213900
0.000000 0.000000 0.000000 0.000000 0.000000 -0.000000 -0.105445 90.726300 -5.686310 89.164900 -2.918630 8.692860 15.735700 0.000005 -0.000001 89.154900 76.580300 -89.896700 8.984550 -0.406207 -0.000000 19.068300 -0.460576 -1.410140 16.377300 -0.000001 -0.000001 11.301400 -3.765230 3.000610 6.456720 -0.000001 -0.000000 -9.400240 -3.369830 0.433544 12.994200 -0.242716 4.980390 -88.543800 -5.244340 -74.457300 5.348090 -0.000007 -0.000001 -77.140400 -18.975400 -81.262600 24.328600 0.000019 0.000005 44.970100 -8.916230 -98.819300 22.291600 -0.000001 0.000005 22.435800 4.978790 7.767150 12.994500 -0.242716 -4.980390 90.212500 -1.278530 -80.564000 -5.348130 -0.000001 -0.000004 -73.888500 -19.607500 -82.267400 -24.328900 0.000322 -0.000009 21.185900 -4.913770 -102.462000 -22.291500 -0.000108 -0.000004 25.772900 5.237000 1.773810 -2.192480 -6.469440 -0.000000 -175.568000 -11.659700 -6.537550 39.081100 -0.000007 -0.000012 -0.153298 0.236179 32.986900 40.985400 -0.000006 -0.000013 0.724658 5.014170 -67.719300 11.754300 -0.000000 0.000003 -0.000097 -0.001001 -16.616000 -2.192510 6.469440 -0.000001 176.431000 20.031600 174.445000 -39.081100 -0.002282 -0.040193 -0.041340 0.070195 32.451900 -40.985400 0.000008 0.000006 6.088680 11.635300 -68.759400 -11.754300 -0.000006 -0.000006 -0.002987 -0.040458 -18.218400
